<svg xmlns="http://www.w3.org/2000/svg" xml:space="preserve" viewBox="0 0 1024 1024">
  <g fill="#fff">
    <ellipse cx="512.0039" cy="993.8928" paint-order="stroke fill markers" rx="217.5683" ry="15.6303"/>
    <path d="M512.004 77.002a435 435 0 0 0-435 435 435 435 0 0 0 435 435 435 435 0 0 0 435-435 435 435 0 0 0-435-435zm0 20.4101A414.5898 414.5898 0 0 1 926.5936 512.002 414.5898 414.5898 0 0 1 512.004 926.5919a414.5898 414.5898 0 0 1-414.5899-414.59A414.5898 414.5898 0 0 1 512.0039 97.4121Z"/>
    <path d="M567.0371 113.957c9.5402 6.304 17.8719 14.2353 24.7461 23.3438 43.459 9.2143 84.9818 25.8744 122.7402 49.2754 4.978-.7627 10.0373-1.2793 15.2285-1.2793 6.5098 0 12.8586.6696 19.0215 1.8574-53.6721-38.995-116.0413-64.1194-181.7363-73.1973zm-111.6719 1.0782c-64.4847 9.2072-125.7042 33.8724-178.5664 71.9394 5.7904-1.043 11.7256-1.6738 17.8164-1.6738 5.4201 0 10.7006.5508 15.8867 1.3808 37.3614-23.1187 78.4034-39.6493 121.3575-48.8945 6.5561-8.7974 14.46-16.5202 23.5058-22.752zm-257.539 145.5273c-45.5218 57.0474-74.6812 125.3869-84.42 197.6992 6.2744-9.814 14.2077-18.4273 23.416-25.5058 10.5648-48.5935 30.4312-94.6503 58.5489-135.6602-.4562-3.875-.7559-7.7972-.7559-11.795 0-8.5548 1.19-16.8126 3.211-24.7382zm628.8672.5898c1.924 7.7457 3.0566 15.8037 3.0566 24.1446 0 3.7186-.2374 7.3788-.6328 10.9922 28.2838 41.3692 48.1762 87.8513 58.6113 136.873 9.502 7.4069 17.595 16.4824 23.9063 26.8008-9.6969-72.7497-39.043-141.5032-84.9414-198.8106zm84.252 304.0235c-6.0746 9.6416-13.7134 18.171-22.6173 25.2187-10.2591 49.8876-30.3165 97.204-59.0351 139.2657.2681 2.985.457 5.994.457 9.0488 0 9.5125-1.4135 18.6798-3.8945 27.3965 46.2982-57.8846 75.7265-127.4177 85.0898-200.9297zm-797.8731.0156c9.418 73.7216 39.0149 143.4252 85.5566 201.3847-2.567-8.8544-4.0156-18.1851-4.0156-27.8671 0-3.3424.1796-6.6423.5-9.9004-28.5648-41.7033-48.5941-88.6119-58.9961-138.086-9.0819-7.1086-16.8745-15.7413-23.045-25.5312zm159.2011 270.9238c55.224 40.8492 119.8708 66.8812 187.9786 75.6914-9.9863-6.062-18.8515-13.7588-26.1446-22.8184-44.848-9.4182-87.6363-26.7541-126.3672-51.2382-4.3062.566-8.6662.959-13.127.959-7.6908 0-15.1471-.95-22.3398-2.5938zm479.2637.1426c-7.0212 1.562-14.2954 2.4511-21.7871 2.4511-4.1945 0-8.3025-.3403-12.3613-.8417-39.152 24.7613-82.4458 42.2162-127.8223 51.5703-7.2255 8.8739-15.9854 16.406-25.8125 22.371 68.028-8.8008 132.6018-34.7826 187.7832-75.5507zM587.6934 179.0547a77.9998 77.9998 0 0 1 2.2187 16.9648 325.5194 325.5194 0 0 1 85.5645 34.6016 77.9999 77.9999 0 0 1 13.2246-10.8711 341.5443 341.5443 0 0 0-101.0078-40.6953zm-150.8477.6562a341.5443 341.5443 0 0 0-100.2266 39.9043 78.0004 78.0004 0 0 1 13.4493 10.8692 325.5192 325.5192 0 0 1 84.0937-33.832 77.9995 77.9995 0 0 1 2.6836-16.9415zm145.9375 50.5625a77.9994 77.9994 0 0 1-7.209 12.3575 276.8584 276.8584 0 0 1 77.9453 31.5136 77.9997 77.9997 0 0 1 2.6914-14.211 290.4875 290.4875 0 0 0-73.4277-29.66zm-140.4355.3575a290.488 290.488 0 0 0-73.9024 29.6308 77.9997 77.9997 0 0 1 3.2383 13.7207 276.8581 276.8581 0 0 1 77.045-30.8261 77.9999 77.9999 0 0 1-6.381-12.5254zM227.5918 323.457a341.5442 341.5442 0 0 0-47.879 113.3867 77.9996 77.9996 0 0 1 16.9415-2.6835 325.5193 325.5193 0 0 1 40.875-96.9922 78.0005 78.0005 0 0 1-9.9375-13.711zm569.1719.0176a78 78 0 0 1-10.127 13.8867 325.5191 325.5191 0 0 1 41.3496 96.7325 77.9998 77.9998 0 0 1 16.9649 2.2187 341.5446 341.5446 0 0 0-48.1875-112.8379zm-530.4414 33.875a290.488 290.488 0 0 0-35.4942 84.1016 77.9998 77.9998 0 0 1 12.3145 7.3437A276.858 276.858 0 0 1 280.084 361a77.9997 77.9997 0 0 1-13.7617-3.6504zm491.789.4942a78.0005 78.0005 0 0 1-13.6347 3.9453 276.8583 276.8583 0 0 1 36.9043 86.668 78 78 0 0 1 12.5507-6.3946 290.4878 290.4878 0 0 0-35.8203-84.2187zM243.1426 575.209a77.9998 77.9998 0 0 1-12.3145 7.3437 290.4878 290.4878 0 0 0 35.4961 84.1075 77.9998 77.9998 0 0 1 13.7637-3.6504 276.8583 276.8583 0 0 1-36.9453-87.8008zm538.2383.3379a276.8582 276.8582 0 0 1-36.9063 86.6699 78 78 0 0 1 13.5078 3.8926 290.4877 290.4877 0 0 0 35.3926-84.4512 77.9994 77.9994 0 0 1-11.9941-6.1113zm-601.668 11.6133a341.5443 341.5443 0 0 0 47.8809 113.3886 77.9998 77.9998 0 0 1 9.9375-13.709 325.5191 325.5191 0 0 1-40.877-96.996 77.9996 77.9996 0 0 1-16.9414-2.6836zm664.416.7695a77.9998 77.9998 0 0 1-16.1426 1.9805 325.5191 325.5191 0 0 1-40.914 96.0703 78 78 0 0 1 10.0468 13.627 341.5444 341.5444 0 0 0 47.0098-111.6778zM653.5176 749.8613a276.858 276.858 0 0 1-77.9434 31.5117 78.0003 78.0003 0 0 1 6.9805 11.8047 290.4878 290.4878 0 0 0 73.3828-29.6406 78.0002 78.0002 0 0 1-2.42-13.6758zm-281.832.1621a78.0005 78.0005 0 0 1-3.2403 13.7188 290.488 290.488 0 0 0 73.9024 29.6308 77.9999 77.9999 0 0 1 6.3808-12.5253 276.8578 276.8578 0 0 1-77.043-30.8243zm303.789 43.3614a325.5194 325.5194 0 0 1-85.5625 34.5996 77.997 77.997 0 0 1-1.9805 16.1425 341.5445 341.5445 0 0 0 100.2149-40.1523 78.0001 78.0001 0 0 1-12.6719-10.5898zm-325.4023.1367a78.0004 78.0004 0 0 1-13.4492 10.8691 341.5443 341.5443 0 0 0 100.2226 39.9024 77.9996 77.9996 0 0 1-2.6836-16.9414 325.5193 325.5193 0 0 1-84.0898-33.8301z"/>
    <path fill-opacity=".9961" d="m354.789 331.9707-14.4687 13.8066 36.3164 38.0625 14.1465-14.1464zm315.9102 0-36.7168 38.4805 14.1465 14.1465 37.041-38.8204zM273.4532 502.002v20h72v-20zm405.7167 0v20h72v-20zm-31.039 137.4023-14.1465 14.1465 36.7148 38.4805 14.4707-13.8067zm-271.4942.7598-36.3164 38.0605 14.4688 13.8067 35.9941-37.7227zm126.1074 57.1816v53.9473h20v-53.9473Z"/>
    <path d="M512.004 127.6437a70 70 0 0 0-70 70 70 70 0 0 0 70 70 70 70 0 0 0 70-70 70 70 0 0 0-70-70zm0 19.1719a50.8273 50.8273 0 0 1 50.828 50.8281 50.8273 50.8273 0 0 1-50.828 50.8282 50.8273 50.8273 0 0 1-50.8263-50.8282 50.8273 50.8273 0 0 1 50.8262-50.8281zm0 13.3281a37.5 37.5 0 0 0-37.5 37.5 37.5 37.5 0 0 0 37.5 37.5 37.5 37.5 0 0 0 37.5-37.5 37.5 37.5 0 0 0-37.5-37.5zm217.747 55.1536a70 70 0 0 0-70 70 70 70 0 0 0 70 70 70 70 0 0 0 70-70 70 70 0 0 0-70-70zm0 19.1718a50.8273 50.8273 0 0 1 50.8281 50.8282 50.8273 50.8273 0 0 1-50.8282 50.828 50.8273 50.8273 0 0 1-50.8261-50.828 50.8273 50.8273 0 0 1 50.8261-50.8282zm0 13.3282a37.5 37.5 0 0 0-37.5 37.5 37.5 37.5 0 0 0 37.5 37.5 37.5 37.5 0 0 0 37.5-37.5 37.5 37.5 0 0 0-37.5-37.5zm96.6111 194.2047a70 70 0 0 0-70 70 70 70 0 0 0 70 70 70 70 0 0 0 70-70 70 70 0 0 0-70-70zm0 19.1718a50.8273 50.8273 0 0 1 50.8281 50.8281 50.8273 50.8273 0 0 1-50.828 50.8281 50.8273 50.8273 0 0 1-50.8263-50.828 50.8273 50.8273 0 0 1 50.8262-50.8282zm0 13.3281a37.5 37.5 0 0 0-37.5 37.5 37.5 37.5 0 0 0 37.5 37.5 37.5 37.5 0 0 0 37.5-37.5 37.5 37.5 0 0 0-37.5-37.5zM729.751 668.709a70 70 0 0 0-70 70 70 70 0 0 0 70 70 70 70 0 0 0 70-70 70 70 0 0 0-70-70zm0 19.1717a50.8273 50.8273 0 0 1 50.828 50.8282 50.8273 50.8273 0 0 1-50.828 50.8281 50.8273 50.8273 0 0 1-50.8263-50.828 50.8273 50.8273 0 0 1 50.8262-50.8283zm0 13.3282a37.5 37.5 0 0 0-37.5 37.5 37.5 37.5 0 0 0 37.5 37.5 37.5 37.5 0 0 0 37.5-37.5 37.5 37.5 0 0 0-37.5-37.5zm-217.747 55.1512a70 70 0 0 0-70 70 70 70 0 0 0 70 70 70 70 0 0 0 70-70 70 70 0 0 0-70-70zm0 19.172a50.8273 50.8273 0 0 1 50.828 50.828 50.8273 50.8273 0 0 1-50.828 50.8282 50.8273 50.8273 0 0 1-50.8263-50.8282 50.8273 50.8273 0 0 1 50.8262-50.828zm0 13.328a37.5 37.5 0 0 0-37.5 37.5 37.5 37.5 0 0 0 37.5 37.5 37.5 37.5 0 0 0 37.5-37.5 37.5 37.5 0 0 0-37.5-37.5zM294.5742 668.709a70 70 0 0 0-70 70 70 70 0 0 0 70 70 70 70 0 0 0 70-70 70 70 0 0 0-70-70zm0 19.1717a50.8273 50.8273 0 0 1 50.8281 50.8282 50.8273 50.8273 0 0 1-50.828 50.8281 50.8273 50.8273 0 0 1-50.8263-50.828 50.8273 50.8273 0 0 1 50.8262-50.8283zm0 13.3282a37.5 37.5 0 0 0-37.5 37.5 37.5 37.5 0 0 0 37.5 37.5 37.5 37.5 0 0 0 37.5-37.5 37.5 37.5 0 0 0-37.5-37.5zM197.6457 442.002a70 70 0 0 0-70 70 70 70 0 0 0 70 70 70 70 0 0 0 70-70 70 70 0 0 0-70-70zm0 19.1718a50.8273 50.8273 0 0 1 50.8281 50.8281 50.8273 50.8273 0 0 1-50.8281 50.8281 50.8273 50.8273 0 0 1-50.8262-50.828 50.8273 50.8273 0 0 1 50.8262-50.8282zm0 13.3281a37.5 37.5 0 0 0-37.5 37.5 37.5 37.5 0 0 0 37.5 37.5 37.5 37.5 0 0 0 37.5-37.5 37.5 37.5 0 0 0-37.5-37.5zm96.9685-259.2018a70 70 0 0 0-70 70 70 70 0 0 0 70 70 70 70 0 0 0 70-70 70 70 0 0 0-70-70zm0 19.1719a50.8273 50.8273 0 0 1 50.8282 50.828 50.8273 50.8273 0 0 1-50.8282 50.8281 50.8273 50.8273 0 0 1-50.8261-50.828 50.8273 50.8273 0 0 1 50.8261-50.8282zm0 13.3281a37.5 37.5 0 0 0-37.5 37.5 37.5 37.5 0 0 0 37.5 37.5 37.5 37.5 0 0 0 37.5-37.5 37.5 37.5 0 0 0-37.5-37.5z"/>
    <path d="M511.9941 284.9453c-29.2382.0002-57.1727 12.101-77.1718 33.4297-20.4397 21.4033-31.8241 49.8735-31.7774 79.4687v17.5391c-23.125 9.6838-39.6914 36.3984-39.6914 68.084v94.8066c0 39.9 26.2272 72.0215 58.8047 72.0215h179.6934c32.5774 0 58.8047-32.1214 58.8047-72.0215v-94.8066c0-31.6955-16.5765-58.4177-39.713-68.0938v-17.5293c.0653-29.5988-11.3218-58.0755-31.7773-79.4687-19.9991-21.3286-47.9336-33.4295-77.1719-33.4297zm.0977 15.0371c24.3654 0 48.731 10.6634 68.7266 31.9883 18.1604 18.9935 22.9305 49.0204 22.6523 79.5742-.5431-.018-1.0724-.0996-1.6191-.0996h-17.8008v-15.4336c.1134-20.0538-7.5533-39.3715-21.3867-53.8906-13.6864-14.7122-32.1779-22.0684-50.67-22.0684-18.492 0-36.9835 7.3562-50.6699 22.0684-13.8334 14.5191-21.5001 33.8368-21.3867 53.8906v15.4336h-17.7793c-.651 0-1.282.0937-1.9277.1192l.1074-14.9278c-.0454-28.3187 3.4697-44.1856 23.0273-64.666 19.9957-21.3249 44.3612-31.9883 68.7266-31.9883zm-.0977 40.5508c14.0498 0 28.0996 5.5895 38.498 16.7676a58.8727 58.8727 0 0 1 16.2481 40.9433v13.2012H457.248v-13.2012a58.8727 58.8727 0 0 1 16.248-40.9433c10.3986-11.178 24.4484-16.7676 38.4981-16.7676zm-79.7968 84.2559h159.6152c28.9375 0 52.2344 28.5328 52.2344 63.9746v84.2129c0 35.4418-23.297 63.9746-52.2344 63.9746H432.1973c-28.9375 0-52.2344-28.5328-52.2344-63.9746v-84.213c0-35.4417 23.2969-63.9745 52.2344-63.9745z" paint-order="stroke fill markers"/>
    <path d="M435.8145 465.3926a14.7686 14.7686 0 0 0-14.7696 14.7676 14.7686 14.7686 0 0 0 14.7696 14.7695 14.7686 14.7686 0 0 0 14.7675-14.7695 14.7686 14.7686 0 0 0-14.7675-14.7676zm152.9609 0a14.7686 14.7686 0 0 0-14.7676 14.7676 14.7686 14.7686 0 0 0 14.7676 14.7695 14.7686 14.7686 0 0 0 14.7695-14.7695 14.7686 14.7686 0 0 0-14.7695-14.7676zm-152.961 118.705a14.7686 14.7686 0 0 0-14.7695 14.7696 14.7686 14.7686 0 0 0 14.7696 14.7676 14.7686 14.7686 0 0 0 14.7675-14.7676 14.7686 14.7686 0 0 0-14.7675-14.7695zm152.961 0a14.7686 14.7686 0 0 0-14.7676 14.7696 14.7686 14.7686 0 0 0 14.7676 14.7676 14.7686 14.7686 0 0 0 14.7695-14.7676 14.7686 14.7686 0 0 0-14.7695-14.7695z" paint-order="stroke fill markers"/>
    <path fill-rule="evenodd" d="M510.961 461.1602a43.0585 43.0585 0 0 0-16.9434 82.1875v.0722l-23.6309 61.9043h83.2324l-21.912-62.8535a43.0585 43.0585 0 0 0-20.7462-81.3105Zm1.7656 7.3183c15.8415.3142 29.6316 11.16 33.58 26.6328 4.0759 15.9721-3.4143 32.6454-18.0644 40.2051l-5.4336 2.4102 19.5059 59.0879-59.3458.33 20.041-58.5742-5.7519-2.4746v-.0586c-14.9857-6.8705-23.245-23.178-19.916-39.3223 3.3289-16.144 17.365-27.8491 33.8457-28.2324a35.7455 35.7455 0 0 1 1.539-.004z" class="cls-2"/>
  </g>
</svg>
