<?xml version="1.0" encoding="UTF-8" standalone="no"?>
<!-- Created with Inkscape (http://www.inkscape.org/) -->

<svg
   version="1.1"
   id="svg1"
   width="1024"
   height="1024"
   viewBox="0 0 1024 1024"
   sodipodi:docname="cryptdatum-inkscape.svg"
   inkscape:version="1.3.2 (091e20ef0f, 2023-11-25)"
   xml:space="preserve"
   inkscape:export-filename="cryptdatum-logo-mini.png"
   inkscape:export-xdpi="24"
   inkscape:export-ydpi="24"
   xmlns:inkscape="http://www.inkscape.org/namespaces/inkscape"
   xmlns:sodipodi="http://sodipodi.sourceforge.net/DTD/sodipodi-0.dtd"
   xmlns="http://www.w3.org/2000/svg"
   xmlns:svg="http://www.w3.org/2000/svg"><defs
     id="defs1"><inkscape:path-effect
       effect="fillet_chamfer"
       id="path-effect4640"
       is_visible="true"
       lpeversion="1"
       nodesatellites_param="C,1,0,1,1,0,0,1 @ C,1,0,1,1,0,0,1 @ C,1,0,1,1,0,0,1 @ C,1,0,1,1,0,0,1 @ C,1,0,1,1,0,0,1 @ C,1,0,1,1,0,0,1 @ C,1,0,1,1,0,0,1 @ C,1,0,1,1,0,0,1"
       radius="0"
       unit="px"
       method="arc"
       mode="C"
       chamfer_steps="1"
       flexible="true"
       use_knot_distance="true"
       apply_no_radius="true"
       apply_with_radius="true"
       only_selected="true"
       hide_knots="true" /><style
       id="style1">.cls-1{fill:#fbd734;}.cls-1,.cls-2{fill-rule:evenodd;}.cls-2{fill:#36464e;}</style><inkscape:path-effect
       effect="fillet_chamfer"
       id="path-effect4640-7"
       is_visible="true"
       lpeversion="1"
       nodesatellites_param="C,1,0,1,1,0,0,1 @ C,1,0,1,1,0,0,1 @ C,1,0,1,1,0,0,1 @ C,1,0,1,1,0,0,1 @ C,1,0,1,1,0,0,1 @ C,1,0,1,1,0,0,1 @ C,1,0,1,1,0,0,1 @ C,1,0,1,1,0,0,1"
       radius="0"
       unit="px"
       method="arc"
       mode="C"
       chamfer_steps="1"
       flexible="true"
       use_knot_distance="true"
       apply_no_radius="true"
       apply_with_radius="true"
       only_selected="true"
       hide_knots="true" /></defs><sodipodi:namedview
     id="namedview1"
     pagecolor="#505050"
     bordercolor="#ffffff"
     borderopacity="1"
     inkscape:showpageshadow="0"
     inkscape:pageopacity="0"
     inkscape:pagecheckerboard="1"
     inkscape:deskcolor="#d1d1d1"
     showguides="true"
     inkscape:zoom="0.70710678"
     inkscape:cx="344.361"
     inkscape:cy="581.94888"
     inkscape:window-width="2560"
     inkscape:window-height="1363"
     inkscape:window-x="0"
     inkscape:window-y="0"
     inkscape:window-maximized="1"
     inkscape:current-layer="svg1"><sodipodi:guide
       position="-447.22809,511.99881"
       orientation="0,-1"
       id="guide4620"
       inkscape:locked="false" /><sodipodi:guide
       position="512.00478,1118.8452"
       orientation="1,0"
       id="guide4621"
       inkscape:locked="false" /><sodipodi:guide
       position="294.61424,199.98099"
       orientation="1,0"
       id="guide4622"
       inkscape:locked="false" /><sodipodi:guide
       position="659.1071,285.29111"
       orientation="0,-1"
       id="guide4624"
       inkscape:locked="false" /><sodipodi:guide
       position="659.32054,808.69989"
       orientation="0,-1"
       id="guide4627"
       inkscape:locked="false" /><sodipodi:guide
       position="729.75093,789.53087"
       orientation="1,0"
       id="guide4628"
       inkscape:locked="false" /><sodipodi:guide
       position="354.78972,692.02968"
       orientation="0,-1"
       id="guide4636"
       inkscape:locked="false" /><sodipodi:guide
       position="420.01625,558.60827"
       orientation="0,-1"
       id="guide4642"
       inkscape:locked="false" /><sodipodi:guide
       position="603.5448,531.48977"
       orientation="1,0"
       id="guide4643"
       inkscape:locked="false" /><sodipodi:guide
       position="421.04572,543.83972"
       orientation="1,0"
       id="guide4644"
       inkscape:locked="false" /><sodipodi:guide
       position="588.77625,410.36511"
       orientation="0,-1"
       id="guide4645"
       inkscape:locked="false" /></sodipodi:namedview><g
     id="g4636"
     inkscape:label="ready"
     style="display:inline"><path
       id="path4626-8"
       style="display:inline;fill:#ffffff;fill-opacity:1;stroke:none;stroke-width:0;stroke-linecap:square;stroke-dasharray:none"
       d="M 512.00391,77.001953 A 435,435 0 0 0 77.003906,512.00195 a 435,435 0 0 0 435.000004,435 435,435 0 0 0 435,-435 435,435 0 0 0 -435,-434.999997 z m 0,20.410156 A 414.58984,414.58984 0 0 1 926.59375,512.00195 414.58984,414.58984 0 0 1 512.00391,926.5918 414.58984,414.58984 0 0 1 97.414062,512.00195 414.58984,414.58984 0 0 1 512.00391,97.412109 Z"
       inkscape:label="outer-ring" /><path
       id="path4626-0"
       style="display:inline;fill:#ffffff;fill-opacity:1;stroke:none;stroke-width:0;stroke-linecap:square;stroke-dasharray:none"
       inkscape:label="inner-ring"
       d="m 567.03711,113.95703 c 9.54019,6.30405 17.87185,14.23523 24.74609,23.34375 43.45909,9.21429 84.98178,25.87444 122.74024,49.27539 4.97796,-0.76263 10.03728,-1.27929 15.22851,-1.27929 6.50971,-10e-6 12.85857,0.66958 19.02149,1.85742 -53.67217,-38.995 -116.04133,-64.11938 -181.73633,-73.19727 z m -111.67188,1.07813 c -64.4847,9.20724 -125.70426,33.87242 -178.5664,71.93945 5.79042,-1.04305 11.72559,-1.67383 17.8164,-1.67383 5.42009,0 10.70053,0.55087 15.88672,1.38086 37.36138,-23.11869 78.40333,-39.64932 121.35743,-48.89453 6.55616,-8.79743 14.46011,-16.52024 23.50585,-22.75195 z M 197.82617,260.5625 c -45.52172,57.04736 -74.68114,125.3869 -84.41992,197.69922 6.27431,-9.8141 14.20769,-18.42729 23.41602,-25.50586 10.56478,-48.59346 30.43116,-94.65027 58.54882,-135.66016 -0.45614,-3.87508 -0.75586,-7.79724 -0.75586,-11.79492 0,-8.5549 1.18997,-16.81272 3.21094,-24.73828 z m 628.86719,0.58984 c 1.92407,7.74566 3.05666,15.80366 3.05664,24.14454 10e-6,3.7186 -0.23736,7.37887 -0.63281,10.99218 28.28385,41.36925 48.17619,87.85132 58.61133,136.87305 9.50198,7.40689 17.59504,16.48235 23.90625,26.80078 -9.69687,-72.74964 -39.04293,-141.50323 -84.94141,-198.81055 z m 84.25195,304.02344 c -6.07453,9.6416 -13.71331,18.17093 -22.61719,25.21875 -10.25914,49.88753 -30.31655,97.20405 -59.03515,139.26563 0.26815,2.98505 0.45704,5.99398 0.45703,9.04882 2e-5,9.51247 -1.41348,18.67979 -3.89453,27.39649 46.29825,-57.88458 75.7265,-127.41766 85.08984,-200.92969 z m -797.87304,0.0156 c 9.41798,73.72163 39.0149,143.42522 85.55664,201.38476 -2.56707,-8.8544 -4.01563,-18.18515 -4.01563,-27.86719 0,-3.34233 0.17966,-6.64226 0.5,-9.90039 -28.56481,-41.70321 -48.59408,-88.61183 -58.99609,-138.08593 -9.08185,-7.10866 -16.87446,-15.74137 -23.04492,-25.53125 z M 272.27344,836.1152 c 55.22389,40.8492 119.87072,66.88118 187.97851,75.69141 -9.98628,-6.06206 -18.85141,-13.75882 -26.14453,-22.81836 -44.84807,-9.41829 -87.63631,-26.75418 -126.36719,-51.23828 -4.30619,0.56606 -8.66624,0.95898 -13.12695,0.95898 -7.69088,0 -15.14719,-0.94997 -22.33984,-2.59375 z m 479.26367,0.14258 c -7.02125,1.56202 -14.29538,2.45117 -21.78711,2.45117 -4.19455,0 -8.30245,-0.34032 -12.36133,-0.84179 -39.15188,24.76136 -82.44579,42.21627 -127.82226,51.57031 -7.22548,8.87393 -15.98538,16.40601 -25.8125,22.37109 68.02792,-8.80086 132.60179,-34.78266 187.7832,-75.55078 z" /><path
       id="path4626-8-3"
       style="display:inline;fill:#ffffff;fill-opacity:1;stroke:none;stroke-width:0;stroke-linecap:square;stroke-dasharray:none"
       inkscape:label="spin"
       d="m 587.69336,179.05469 c 1.35943,5.55648 2.10349,11.24564 2.21875,16.96484 30.02014,7.41138 58.83115,19.06231 85.56445,34.60156 3.99599,-4.09794 8.43089,-7.74359 13.22461,-10.87109 -31.27613,-18.87988 -65.37877,-32.61959 -101.00781,-40.69531 z m -150.84766,0.65625 c -35.31182,7.90796 -69.14258,21.37737 -100.22656,39.90429 4.87206,3.11338 9.38285,6.75883 13.44922,10.86915 26.31624,-15.14405 54.62185,-26.53178 84.09375,-33.83204 0.269,-5.72862 1.16897,-11.41009 2.68359,-16.9414 z m 145.9375,50.5625 c -2.01936,4.33128 -4.4325,8.46782 -7.20898,12.35742 27.43455,6.4753 53.71933,17.10236 77.94531,31.51367 0.45506,-4.81011 1.35607,-9.56754 2.69141,-14.21094 -23.00719,-13.19228 -47.71262,-23.17171 -73.42774,-29.66015 z m -140.43554,0.35742 c -25.87738,6.43809 -50.74503,16.40868 -73.90235,29.63086 1.49137,4.46644 2.57523,9.05876 3.23828,13.7207 23.98713,-14.08769 49.96046,-24.47978 77.04493,-30.82617 -2.4996,-3.97457 -4.63523,-8.16672 -6.38086,-12.52539 z M 227.5918,323.45703 c -22.69427,34.58434 -38.91727,73.00361 -47.87891,113.38672 5.53131,-1.51462 11.21279,-2.41459 16.94141,-2.68359 8.27328,-34.334 22.0787,-67.09286 40.875,-96.99219 -3.80025,-4.19614 -7.13238,-8.79354 -9.9375,-13.71094 z m 569.17187,0.0176 c -2.8538,4.98782 -6.25007,9.64499 -10.12695,13.88672 18.93675,29.78895 32.90228,62.45963 41.34961,96.73242 5.7192,0.11526 11.40836,0.85932 16.96484,2.21875 -9.11944,-40.21306 -25.44532,-78.44243 -48.1875,-112.83789 z m -530.4414,33.875 c -16.18974,25.98806 -28.169,54.3723 -35.49415,84.10156 4.32158,2.06465 8.44381,4.52295 12.31446,7.34375 7.14937,-31.17934 19.6481,-60.88383 36.9414,-87.79492 -4.68893,-0.79471 -9.29535,-2.0166 -13.76171,-3.65039 z m 491.78906,0.49414 c -4.41557,1.72676 -8.97939,3.04733 -13.63477,3.94531 17.16184,26.56914 29.6439,55.88267 36.9043,86.66797 3.98217,-2.50567 8.18289,-4.64591 12.55078,-6.39453 -7.41505,-29.78928 -19.50516,-58.2149 -35.82031,-84.21875 z M 243.14258,575.20898 c -3.87065,2.8208 -7.99288,5.2791 -12.31446,7.34375 7.32517,29.73141 19.30511,58.11768 35.4961,84.10743 4.46699,-1.63391 9.07408,-2.85579 13.76367,-3.65039 -17.29529,-26.91262 -29.79537,-56.61916 -36.94531,-87.80079 z m 538.23828,0.3379 c -7.26079,30.78611 -19.74352,60.10031 -36.90625,86.66992 4.61059,0.88832 9.13155,2.19113 13.50781,3.89258 16.18803,-26.10226 28.13393,-54.60671 35.39258,-84.45118 -4.16669,-1.68766 -8.17968,-3.73238 -11.99414,-6.11132 z m -601.66797,11.61328 c 8.96202,40.38392 25.18569,78.80388 47.88086,113.38867 2.80523,-4.91672 6.13736,-9.51346 9.9375,-13.70899 -18.79737,-29.9004 -32.60347,-62.66062 -40.87695,-96.99609 -5.72862,-0.269 -11.4101,-1.16897 -16.94141,-2.68359 z m 664.41602,0.76953 c -5.29715,1.22086 -10.70741,1.88463 -16.14258,1.98047 -8.37948,34.01644 -22.19521,66.45716 -40.91406,96.07031 3.83346,4.16433 7.20226,8.73356 10.04687,13.62695 22.20072,-34.12658 38.12112,-71.94755 47.00977,-111.67773 z M 653.51758,749.86133 c -24.22549,14.41045 -50.50959,25.03685 -77.94336,31.51172 2.6689,3.72231 5.00475,7.67247 6.98047,11.80468 25.69862,-6.48616 50.38864,-16.45891 73.38281,-29.64062 -1.21168,-4.47757 -2.02153,-9.0543 -2.41992,-13.67578 z m -281.83203,0.16211 c -0.66381,4.66134 -1.74832,9.253 -3.24024,13.71875 23.15732,13.22218 48.02497,23.19277 73.90235,29.63086 1.74563,-4.35867 3.88126,-8.55082 6.38086,-12.52539 -27.08369,-6.34596 -53.05634,-16.73739 -77.04297,-30.82422 z m 303.78906,43.36133 c -26.7328,15.5384 -55.54314,27.18867 -85.5625,34.59961 -0.0958,5.43517 -0.75961,10.84543 -1.98047,16.14257 35.32238,-7.98657 69.14982,-21.53997 100.21484,-40.15234 -4.58679,-3.07159 -8.83455,-6.62143 -12.67187,-10.58984 z m -325.40234,0.13671 c -4.06637,4.11032 -8.57716,7.75576 -13.44922,10.86914 31.08289,18.52586 64.91229,31.9946 100.22265,39.90235 -1.51462,-5.53131 -2.41459,-11.21279 -2.68359,-16.94141 -29.47045,-7.29999 -57.77472,-18.68705 -84.08984,-33.83008 z"
       sodipodi:nodetypes="cccccccccccccccccccccccccccccccccccccccccccccccccccccccccccccccccccccccccccccccc" /><path
       id="rect4636"
       style="display:inline;fill:#ffffff;fill-opacity:0.996126;stroke:none;stroke-width:0;stroke-linecap:square;stroke-dasharray:none"
       d="m 354.78906,331.9707 -14.46875,13.80664 36.31641,38.0625 14.14648,-14.14648 z m 315.91016,0 -36.7168,38.48047 14.14649,14.14649 37.04101,-38.82032 z m -397.2461,170.03125 v 20 h 72 v -20 z m 405.7168,0 v 20 h 72 v -20 z m -31.03906,137.40235 -14.14648,14.14648 36.71484,38.48047 14.4707,-13.80664 z m -271.49414,0.75976 -36.31641,38.06055 14.46875,13.80664 35.99414,-37.72266 z m 126.10742,57.18164 v 53.94727 h 20 V 697.3457 Z"
       inkscape:label="rays" /><g
       id="g4635"
       inkscape:label="dots"
       transform="translate(-229.02186,-546.50276)"
       style="display:inline"><path
         id="path4628"
         style="display:inline;fill:#ffffff;fill-opacity:1;stroke:none;stroke-width:0;stroke-linecap:square;stroke-dasharray:none"
         inkscape:transform-center-x="-1.3534466"
         inkscape:transform-center-y="3.3118009"
         d="m 741.02577,674.14648 a 70,70 0 0 0 -70,70 70,70 0 0 0 70,70 70,70 0 0 0 70,-70 70,70 0 0 0 -70,-70 z m 0,19.17188 a 50.827305,50.827305 0 0 1 50.82812,50.82812 50.827305,50.827305 0 0 1 -50.82812,50.82813 50.827305,50.827305 0 0 1 -50.82618,-50.82813 50.827305,50.827305 0 0 1 50.82618,-50.82812 z m 0,13.32812 a 37.5,37.5 0 0 0 -37.5,37.5 37.5,37.5 0 0 0 37.5,37.5 37.5,37.5 0 0 0 37.5,-37.5 37.5,37.5 0 0 0 -37.5,-37.5 z"
         inkscape:label="dot1" /><path
         id="path4629"
         style="display:inline;fill:#ffffff;fill-opacity:1;stroke:none;stroke-width:0;stroke-linecap:square;stroke-dasharray:none"
         inkscape:transform-center-x="-1.3534466"
         inkscape:transform-center-y="3.3118009"
         d="m 958.77279,761.80002 a 70,70 0 0 0 -70,70 70,70 0 0 0 70,70 70,70 0 0 0 70.00011,-70 70,70 0 0 0 -70.00011,-70 z m 0,19.17187 a 50.827305,50.827305 0 0 1 50.82821,50.82813 50.827305,50.827305 0 0 1 -50.82821,50.82812 50.827305,50.827305 0 0 1 -50.82617,-50.82812 50.827305,50.827305 0 0 1 50.82617,-50.82813 z m 0,13.32813 a 37.5,37.5 0 0 0 -37.5,37.5 37.5,37.5 0 0 0 37.5,37.5 37.5,37.5 0 0 0 37.50007,-37.5 37.5,37.5 0 0 0 -37.50007,-37.5 z"
         inkscape:label="dot2" /><path
         id="path4630"
         style="display:inline;fill:#ffffff;fill-opacity:1;stroke:none;stroke-width:0;stroke-linecap:square;stroke-dasharray:none"
         inkscape:transform-center-x="-1.3534466"
         inkscape:transform-center-y="3.3118009"
         d="m 1055.384,988.50473 a 70,70 0 0 0 -70.00006,69.99997 70,70 0 0 0 70.00006,70 70,70 0 0 0 70,-70 70,70 0 0 0 -70,-69.99997 z m 0,19.17187 a 50.827305,50.827305 0 0 1 50.8281,50.8281 50.827305,50.827305 0 0 1 -50.8281,50.8281 50.827305,50.827305 0 0 1 -50.8262,-50.8281 50.827305,50.827305 0 0 1 50.8262,-50.8281 z m 0,13.3281 a 37.5,37.5 0 0 0 -37.5,37.5 37.5,37.5 0 0 0 37.5,37.5 37.5,37.5 0 0 0 37.5,-37.5 37.5,37.5 0 0 0 -37.5,-37.5 z"
         inkscape:label="dot3" /><path
         id="path4631"
         style="display:inline;fill:#ffffff;fill-opacity:1;stroke:none;stroke-width:0;stroke-linecap:square;stroke-dasharray:none"
         inkscape:transform-center-x="-1.3534466"
         inkscape:transform-center-y="3.3118009"
         d="m 958.77277,1215.2117 a 70,70 0 0 0 -70,70 70,70 0 0 0 70,70 70,70 0 0 0 70.00003,-70 70,70 0 0 0 -70.00003,-70 z m 0,19.1718 a 50.827305,50.827305 0 0 1 50.82813,50.8282 50.827305,50.827305 0 0 1 -50.82813,50.8281 50.827305,50.827305 0 0 1 -50.82617,-50.8281 50.827305,50.827305 0 0 1 50.82617,-50.8282 z m 0,13.3282 a 37.5,37.5 0 0 0 -37.5,37.5 37.5,37.5 0 0 0 37.5,37.5 37.5,37.5 0 0 0 37.50004,-37.5 37.5,37.5 0 0 0 -37.50004,-37.5 z"
         inkscape:label="dot4" /><path
         id="path4632"
         style="display:inline;fill:#ffffff;fill-opacity:1;stroke:none;stroke-width:0;stroke-linecap:square;stroke-dasharray:none"
         inkscape:transform-center-x="-1.3534466"
         inkscape:transform-center-y="3.3118009"
         d="m 741.02577,1302.8629 a 70,70 0 0 0 -70,70 70,70 0 0 0 70,70 70,70 0 0 0 70,-70 70,70 0 0 0 -70,-70 z m 0,19.1719 a 50.827305,50.827305 0 0 1 50.82812,50.8281 50.827305,50.827305 0 0 1 -50.82812,50.8282 50.827305,50.827305 0 0 1 -50.82618,-50.8282 50.827305,50.827305 0 0 1 50.82618,-50.8281 z m 0,13.3281 a 37.5,37.5 0 0 0 -37.5,37.5 37.5,37.5 0 0 0 37.5,37.5 37.5,37.5 0 0 0 37.5,-37.5 37.5,37.5 0 0 0 -37.5,-37.5 z"
         inkscape:label="dot5" /><path
         id="path4633"
         style="display:inline;fill:#ffffff;fill-opacity:1;stroke:none;stroke-width:0;stroke-linecap:square;stroke-dasharray:none"
         inkscape:transform-center-x="-1.3534466"
         inkscape:transform-center-y="3.3118009"
         d="m 523.59607,1215.2117 a 70,70 0 0 0 -70,70 70,70 0 0 0 70,70 70,70 0 0 0 70,-70 70,70 0 0 0 -70,-70 z m 0,19.1718 a 50.827305,50.827305 0 0 1 50.82812,50.8282 50.827305,50.827305 0 0 1 -50.82812,50.8281 50.827305,50.827305 0 0 1 -50.82617,-50.8281 50.827305,50.827305 0 0 1 50.82617,-50.8282 z m 0,13.3282 a 37.5,37.5 0 0 0 -37.5,37.5 37.5,37.5 0 0 0 37.5,37.5 37.5,37.5 0 0 0 37.5,-37.5 37.5,37.5 0 0 0 -37.5,-37.5 z"
         inkscape:label="dot6" /><path
         id="path4634"
         style="display:inline;fill:#ffffff;fill-opacity:1;stroke:none;stroke-width:0;stroke-linecap:square;stroke-dasharray:none"
         inkscape:transform-center-x="-1.3534466"
         inkscape:transform-center-y="3.3118009"
         d="m 426.66753,988.50472 a 70,70 0 0 0 -70,69.99998 70,70 0 0 0 70,70 70,70 0 0 0 70,-70 70,70 0 0 0 -70,-69.99998 z m 0,19.17188 a 50.827305,50.827305 0 0 1 50.82813,50.8281 50.827305,50.827305 0 0 1 -50.82813,50.8281 50.827305,50.827305 0 0 1 -50.82617,-50.8281 50.827305,50.827305 0 0 1 50.82617,-50.8281 z m 0,13.3281 a 37.5,37.5 0 0 0 -37.5,37.5 37.5,37.5 0 0 0 37.5,37.5 37.5,37.5 0 0 0 37.5,-37.5 37.5,37.5 0 0 0 -37.5,-37.5 z"
         inkscape:label="dot7" /><path
         id="path4635"
         style="display:inline;fill:#ffffff;fill-opacity:1;stroke:none;stroke-width:0;stroke-linecap:square;stroke-dasharray:none"
         inkscape:transform-center-x="-1.3534466"
         inkscape:transform-center-y="3.3118009"
         d="m 523.6361,761.80287 a 70,70 0 0 0 -70,70 70,70 0 0 0 70,70 70,70 0 0 0 70,-70 70,70 0 0 0 -70,-70 z m 0,19.17187 a 50.827305,50.827305 0 0 1 50.82812,50.82813 50.827305,50.827305 0 0 1 -50.82812,50.82812 50.827305,50.827305 0 0 1 -50.82617,-50.82812 50.827305,50.827305 0 0 1 50.82617,-50.82813 z m 0,13.32813 a 37.5,37.5 0 0 0 -37.5,37.5 37.5,37.5 0 0 0 37.5,37.5 37.5,37.5 0 0 0 37.5,-37.5 37.5,37.5 0 0 0 -37.5,-37.5 z"
         inkscape:label="dot8" /></g></g><ellipse
     style="display:inline;fill:#ffffff;fill-opacity:1;stroke:none;stroke-width:23.3211;stroke-linecap:square;stroke-dasharray:none;stroke-opacity:1;paint-order:stroke fill markers"
     id="path4645-3"
     ry="15.63027"
     rx="217.56834"
     cy="993.89276"
     cx="512.00391"
     inkscape:label="stand" /><g
     id="g4641"
     inkscape:label="lock"
     style="display:inline"><path
       id="rect4637"
       style="display:inline;fill:#ffffff;fill-opacity:1;stroke:none;stroke-width:26.1669;stroke-linecap:square;stroke-dasharray:none;stroke-opacity:1;paint-order:stroke fill markers"
       d="m 508.40642,283.47638 c -29.4581,2.4e-4 -57.60264,12.31026 -77.75213,34.00766 -20.59338,21.77338 -32.06339,50.73572 -32.01627,80.84269 v 17.8423 c -23.29896,9.8512 -39.98985,37.02772 -39.98985,69.2611 v 96.44576 c 0,40.58986 26.42439,73.26667 59.24684,73.26667 h 181.04448 c 32.82243,0 59.24684,-32.67681 59.24684,-73.26667 v -96.44576 c 0,-32.24349 -16.70107,-59.42766 -40.0115,-69.27103 v -17.83237 c 0.0657,-30.11057 -11.40696,-59.07965 -32.01627,-80.84269 -20.14949,-21.6974 -48.29403,-34.00742 -77.75214,-34.00766 z m 0.0984,15.29709 c 24.54863,0 49.09733,10.84779 69.24331,32.54133 18.29697,19.32187 23.10297,49.86795 22.82267,80.94999 -0.54719,-0.0183 -1.08042,-0.10133 -1.63131,-0.10133 h -17.93463 v -15.70043 c 0.1143,-20.40053 -7.61008,-40.05222 -21.54753,-54.82235 -13.7893,-14.9666 -32.41979,-22.4499 -51.05091,-22.4499 -18.63111,0 -37.26161,7.4833 -51.05091,22.4499 -13.93744,14.77013 -21.66181,34.42182 -21.54752,54.82235 v 15.70043 h -17.91298 c -0.6559,0 -1.2916,0.0953 -1.94223,0.1212 l 0.10823,-15.18583 c -0.0457,-28.80828 3.49575,-44.94954 23.20049,-65.78403 20.14598,-21.69354 44.69468,-32.54133 69.24332,-32.54133 z m -0.0984,41.25187 c 14.15541,0 28.31085,5.68618 38.78752,17.05747 10.58909,11.2218 16.457,26.15172 16.37021,41.65124 v 13.42941 H 453.24869 v -13.42941 c -0.0868,-15.49952 5.78113,-30.42944 16.37022,-41.65124 10.47667,-11.37129 24.63211,-17.05747 38.78751,-17.05747 z m -80.39686,85.71257 h 160.81538 c 29.15504,0 52.62713,29.02611 52.62713,65.08067 v 85.66886 c 0,36.05456 -23.47209,65.08067 -52.62713,65.08067 H 428.00956 c -29.15506,0 -52.62713,-29.02611 -52.62713,-65.08067 v -85.66886 c 0,-36.05456 23.47207,-65.08067 52.62713,-65.08067 z"
       transform="matrix(0.9925371,0,0,0.98300473,7.3819024,6.2866857)"
       inkscape:label="lock-body" /><path
       id="path4642"
       style="display:inline;fill:#ffffff;fill-opacity:1;stroke:none;stroke-width:23.589;stroke-linecap:square;stroke-dasharray:none;stroke-opacity:1;paint-order:stroke fill markers"
       d="m 435.81445,465.39258 a 14.768555,14.768555 0 0 0 -14.76953,14.76758 14.768555,14.768555 0 0 0 14.76953,14.76953 14.768555,14.768555 0 0 0 14.76758,-14.76953 14.768555,14.768555 0 0 0 -14.76758,-14.76758 z m 152.96094,0 a 14.768555,14.768555 0 0 0 -14.76758,14.76758 14.768555,14.768555 0 0 0 14.76758,14.76953 14.768555,14.768555 0 0 0 14.76953,-14.76953 14.768555,14.768555 0 0 0 -14.76953,-14.76758 z M 435.81445,584.09766 a 14.768555,14.768555 0 0 0 -14.76953,14.76953 14.768555,14.768555 0 0 0 14.76953,14.76758 14.768555,14.768555 0 0 0 14.76758,-14.76758 14.768555,14.768555 0 0 0 -14.76758,-14.76953 z m 152.96094,0 a 14.768555,14.768555 0 0 0 -14.76758,14.76953 14.768555,14.768555 0 0 0 14.76758,14.76758 14.768555,14.768555 0 0 0 14.76953,-14.76758 14.768555,14.768555 0 0 0 -14.76953,-14.76953 z"
       inkscape:label="lock-dots" /><path
       id="path2-1-0"
       style="display:inline;fill:#ffffff;fill-opacity:1;fill-rule:evenodd;stroke-width:1.28763"
       class="cls-2"
       d="m 46.450775,61.05946 a 15.181187,15.181187 0 0 0 -5.973739,28.976939 v 0.02548 L 32.145477,111.88754 H 61.490825 L 53.765248,89.72721 A 15.181187,15.181187 0 0 0 46.450775,61.05946 Z m 0.622508,2.580242 c 5.585278,0.110789 10.447272,3.934697 11.839366,9.389961 1.437015,5.631292 -1.20379,11.509823 -6.369004,14.175149 l -1.915729,0.849752 6.877203,20.832686 -20.923581,0.11637 7.065883,-20.651575 -2.027972,-0.872475 v -0.02066 c -5.283527,-2.422334 -8.195499,-8.171883 -7.021812,-13.863895 1.173669,-5.691952 6.122373,-9.818803 11.933017,-9.953937 0.181581,-0.0042 0.362459,-0.005 0.542629,-0.0014 z"
       transform="matrix(2.8363072,0,0,2.8363072,379.21227,287.97677)"
       inkscape:label="keyhole" /></g></svg>
