<svg xmlns="http://www.w3.org/2000/svg" data-name="Layer 1" viewBox="0 0 1023.9999 1024"><defs><linearGradient id="a" x1="0" x2="121.7373" y1=".2676" y2="122.0049" gradientTransform="translate(0 -2.2507) scale(8.4116)" gradientUnits="userSpaceOnUse"><stop offset="0%" stop-color="#ffed56"/>   <stop offset="100%" stop-color="orange"/></linearGradient></defs><path fill="url(#a)" d="M704.8313 396.8044a64.2498 65.462 0 1 1 89.9998 93.3958L550.7484 735.4068a64.3332 65.547 0 0 1-90.1664 0l-240.5826-242.065a64.2606 65.473 0 1 1 90.083-93.396l132.4163 133.726 1.3334-470.9699a64.3332 65.547 0 0 1 128.583 1.1038l-1.25 466.9793ZM0 961.255l.8333-256.2443a64.3332 65.547 0 1 1 128.583 1.1887l-.5833 186.7917q383.3322.7641 765.9145 0l.5833-187.8106a64.3358 65.5496 0 1 1 128.6663 1.1887l-.8333 254.716h-.75a64.2498 65.462 0 0 1-63.6665 62.4903q-447.7487.849-894.8308 0A64.1665 65.3771 0 0 1 0 961.255Z"/></svg>
